<svg xmlns="http://www.w3.org/2000/svg" xmlns:xlink="http://www.w3.org/1999/xlink" xmlns:inkscape="http://www.inkscape.org/namespaces/inkscape" version="1.1" width="841.8898" height="595.2756" viewBox="0 0 841.8898 595.2756">
<path transform="matrix(1,0,0,-1,0,595.2756)" d="M0 0H841.8898V595.2756H0Z" fill="#0b1220" fill-rule="evenodd"/>
<text fill="#ffffff" xml:space="preserve" transform="matrix(1 0 -0 1 0 595.2756)" font-size="18" font-family="Nimbus Sans" font-weight="bold"><tspan y="-552.7559" x="226.9049 239.90091 249.9089 260.9069 270.9149 275.91889 286.91688 296.92488 301.92887 306.93287 317.93086 323.92485 330.92686 340.93486 350.94285 360.95085 366.94483 373.94685 384.94483 390.9388 401.9368 408.9388 418.9468 423.9508 429.9448 434.9488 447.9448 458.94279 463.94679 474.94477 485.94276 490.94676 500.95475 505.95875 518.9547 529.9527 536.9547 547.9527 554.9547 564.9627 569.96676 581.9727 586.97677 597.97476 607.9827">Rede de Infraestrutura - Colonia Aurora Siger</tspan></text>
<text fill="#9fb3cc" xml:space="preserve" transform="matrix(1 0 -0 1 0 595.2756)" font-size="10" font-family="Nimbus Sans"><tspan y="-535.748" x="210.7949 218.5749 221.9049 227.4649 230.2449 235.8049 238.5849 244.1449 249.7049 255.2649 260.8249 266.3849 269.71488 275.27488 280.83488 286.39488 289.17488 294.73487 297.51487 303.07487 308.63487 314.19486 317.52485 323.08485 325.30485 328.63484 334.19483 339.19483 341.41484 346.97483 352.53483 358.09483 363.65483 369.2148 371.9948 374.59483 377.37483 382.9348 388.4948 393.4948 399.0548 404.0548 406.8348 412.6748 415.4548 421.0148 423.2348 428.2348 431.0148 436.5748 442.1348 447.1348 449.3548 454.9148 457.6948 463.2548 471.58479 474.36479 482.69477 488.25477 491.03477 494.36476 499.92475 504.92475 507.70475 511.03474 516.5947 519.92477 525.48477 530.48477 535.48477 538.2648 543.82479 549.38479 552.1648 557.7248 563.2848 566.6148 572.1748 577.7348 580.51486 586.0748 591.6348 594.41488 599.97488 605.53488 611.09487 614.42489 619.98489 622.20486 627.76486">Grafo ponderado e nao-direcionado | pesos = distancia em metros (proxy de perda de energia)</tspan></text>
<path transform="matrix(1,0,0,-1,0,595.2756)" stroke-width="1.2" stroke-linecap="butt" stroke-miterlimit="10" stroke-linejoin="miter" fill="none" stroke="#5a6b85" d="M275.2441 410.4567V319.748"/>
<path transform="matrix(1,0,0,-1,0,595.2756)" d="M249.7323 358.8661H300.75593V370.20469H249.7323Z" fill="#0b1220" fill-rule="evenodd"/>
<text fill="#9fb3cc" xml:space="preserve" transform="matrix(1 0 -0 1 0 595.2756)" font-size="7" font-family="Nimbus Sans"><tspan y="-363.1181" x="267.4636 271.3556 275.2476 277.1936">60 m</tspan></text>
<path transform="matrix(1,0,0,-1,0,595.2756)" stroke-width="1.2" stroke-linecap="butt" stroke-miterlimit="10" stroke-linejoin="miter" fill="none" stroke="#5a6b85" d="M275.2441 410.4567H435.515"/>
<path transform="matrix(1,0,0,-1,0,595.2756)" d="M329.8677 404.2205H380.89134V415.55909H329.8677Z" fill="#0b1220" fill-rule="evenodd"/>
<text fill="#9fb3cc" xml:space="preserve" transform="matrix(1 0 -0 1 0 595.2756)" font-size="7" font-family="Nimbus Sans"><tspan y="-408.4724" x="345.653 349.545 353.437 357.329 359.27503">110 m</tspan></text>
<path transform="matrix(1,0,0,-1,0,595.2756)" stroke-width="1.2" stroke-linecap="butt" stroke-miterlimit="10" stroke-linejoin="miter" fill="none" stroke="#5a6b85" d="M275.2441 410.4567 129.5433 473.9528"/>
<path transform="matrix(1,0,0,-1,0,595.2756)" d="M176.8819 435.9685H227.90552V447.3071H176.8819Z" fill="#0b1220" fill-rule="evenodd"/>
<text fill="#9fb3cc" xml:space="preserve" transform="matrix(1 0 -0 1 0 595.2756)" font-size="7" font-family="Nimbus Sans"><tspan y="-440.2205" x="192.6672 196.5592 200.4512 204.3432 206.2892">200 m</tspan></text>
<path transform="matrix(1,0,0,-1,0,595.2756)" stroke-width="1.2" stroke-linecap="butt" stroke-miterlimit="10" stroke-linejoin="miter" fill="none" stroke="#5a6b85" d="M275.2441 410.4567 129.5433 346.9606"/>
<path transform="matrix(1,0,0,-1,0,595.2756)" d="M176.8819 372.4724H227.90552V383.811H176.8819Z" fill="#0b1220" fill-rule="evenodd"/>
<text fill="#9fb3cc" xml:space="preserve" transform="matrix(1 0 -0 1 0 595.2756)" font-size="7" font-family="Nimbus Sans"><tspan y="-376.7244" x="192.6672 196.5592 200.4512 204.3432 206.2892">210 m</tspan></text>
<path transform="matrix(1,0,0,-1,0,595.2756)" stroke-width="1.2" stroke-linecap="butt" stroke-miterlimit="10" stroke-linejoin="miter" fill="none" stroke="#5a6b85" d="M275.2441 319.748V219.9685"/>
<path transform="matrix(1,0,0,-1,0,595.2756)" d="M249.7323 263.622H300.75593V274.9606H249.7323Z" fill="#0b1220" fill-rule="evenodd"/>
<text fill="#9fb3cc" xml:space="preserve" transform="matrix(1 0 -0 1 0 595.2756)" font-size="7" font-family="Nimbus Sans"><tspan y="-267.874" x="267.4636 271.3556 275.2476 277.1936">90 m</tspan></text>
<path transform="matrix(1,0,0,-1,0,595.2756)" stroke-width="1.2" stroke-linecap="butt" stroke-miterlimit="10" stroke-linejoin="miter" fill="none" stroke="#5a6b85" d="M275.2441 319.748H435.515"/>
<path transform="matrix(1,0,0,-1,0,595.2756)" d="M329.8677 313.5118H380.89134V324.8504H329.8677Z" fill="#0b1220" fill-rule="evenodd"/>
<text fill="#9fb3cc" xml:space="preserve" transform="matrix(1 0 -0 1 0 595.2756)" font-size="7" font-family="Nimbus Sans"><tspan y="-317.7638" x="345.653 349.545 353.437 357.329 359.27503">130 m</tspan></text>
<path transform="matrix(1,0,0,-1,0,595.2756)" stroke-width="1.2" stroke-linecap="butt" stroke-miterlimit="10" stroke-linejoin="miter" fill="none" stroke="#5a6b85" d="M435.515 410.4567V319.748"/>
<path transform="matrix(1,0,0,-1,0,595.2756)" d="M410.0031 358.8661H461.02674V370.20469H410.0031Z" fill="#0b1220" fill-rule="evenodd"/>
<text fill="#9fb3cc" xml:space="preserve" transform="matrix(1 0 -0 1 0 595.2756)" font-size="7" font-family="Nimbus Sans"><tspan y="-363.1181" x="427.7345 431.6265 435.5185 437.4645">70 m</tspan></text>
<path transform="matrix(1,0,0,-1,0,595.2756)" stroke-width="1.2" stroke-linecap="butt" stroke-miterlimit="10" stroke-linejoin="miter" fill="none" stroke="#5a6b85" d="M435.515 410.4567 581.2157 319.748"/>
<path transform="matrix(1,0,0,-1,0,595.2756)" d="M482.8535 358.8661H533.8771V370.20469H482.8535Z" fill="#0b1220" fill-rule="evenodd"/>
<text fill="#9fb3cc" xml:space="preserve" transform="matrix(1 0 -0 1 0 595.2756)" font-size="7" font-family="Nimbus Sans"><tspan y="-363.1181" x="500.5849 504.4769 508.3689 510.3149">85 m</tspan></text>
<path transform="matrix(1,0,0,-1,0,595.2756)" stroke-width="1.2" stroke-linecap="butt" stroke-miterlimit="10" stroke-linejoin="miter" fill="none" stroke="#5a6b85" d="M435.515 410.4567H581.2157"/>
<path transform="matrix(1,0,0,-1,0,595.2756)" d="M482.8535 404.2205H533.8771V415.55909H482.8535Z" fill="#0b1220" fill-rule="evenodd"/>
<text fill="#9fb3cc" xml:space="preserve" transform="matrix(1 0 -0 1 0 595.2756)" font-size="7" font-family="Nimbus Sans"><tspan y="-408.4724" x="498.6389 502.53089 506.42289 510.31489 512.26089">100 m</tspan></text>
<path transform="matrix(1,0,0,-1,0,595.2756)" stroke-width="1.2" stroke-linecap="butt" stroke-miterlimit="10" stroke-linejoin="miter" fill="none" stroke="#5a6b85" d="M435.515 319.748H581.2157"/>
<path transform="matrix(1,0,0,-1,0,595.2756)" d="M482.8535 313.5118H533.8771V324.8504H482.8535Z" fill="#0b1220" fill-rule="evenodd"/>
<text fill="#9fb3cc" xml:space="preserve" transform="matrix(1 0 -0 1 0 595.2756)" font-size="7" font-family="Nimbus Sans"><tspan y="-317.7638" x="500.5849 504.4769 508.3689 510.3149">40 m</tspan></text>
<path transform="matrix(1,0,0,-1,0,595.2756)" stroke-width="1.2" stroke-linecap="butt" stroke-miterlimit="10" stroke-linejoin="miter" fill="none" stroke="#5a6b85" d="M581.2157 319.748H712.3465"/>
<path transform="matrix(1,0,0,-1,0,595.2756)" d="M621.2693 313.5118H672.2929V324.8504H621.2693Z" fill="#0b1220" fill-rule="evenodd"/>
<text fill="#9fb3cc" xml:space="preserve" transform="matrix(1 0 -0 1 0 595.2756)" font-size="7" font-family="Nimbus Sans"><tspan y="-317.7638" x="639.0006 642.89266 646.78469 648.73068">45 m</tspan></text>
<path transform="matrix(1,0,0,-1,0,595.2756)" stroke-width="1.2" stroke-linecap="butt" stroke-miterlimit="10" stroke-linejoin="miter" fill="none" stroke="#5a6b85" d="M435.515 319.748 275.2441 219.9685"/>
<path transform="matrix(1,0,0,-1,0,595.2756)" d="M329.8677 263.622H380.89134V274.9606H329.8677Z" fill="#0b1220" fill-rule="evenodd"/>
<text fill="#9fb3cc" xml:space="preserve" transform="matrix(1 0 -0 1 0 595.2756)" font-size="7" font-family="Nimbus Sans"><tspan y="-267.874" x="347.599 351.491 355.383 357.329">95 m</tspan></text>
<path transform="matrix(1,0,0,-1,0,595.2756)" stroke-width="1.2" stroke-linecap="butt" stroke-miterlimit="10" stroke-linejoin="miter" fill="none" stroke="#5a6b85" d="M275.2441 219.9685 435.515 147.4016"/>
<path transform="matrix(1,0,0,-1,0,595.2756)" d="M329.8677 177.4488H380.89134V188.78739H329.8677Z" fill="#0b1220" fill-rule="evenodd"/>
<text fill="#9fb3cc" xml:space="preserve" transform="matrix(1 0 -0 1 0 595.2756)" font-size="7" font-family="Nimbus Sans"><tspan y="-181.7008" x="347.599 351.491 355.383 357.329">55 m</tspan></text>
<path transform="matrix(1,0,0,-1,0,595.2756)" stroke-width="1.2" stroke-linecap="butt" stroke-miterlimit="10" stroke-linejoin="miter" fill="none" stroke="#5a6b85" d="M275.2441 219.9685 581.2157 147.4016"/>
<path transform="matrix(1,0,0,-1,0,595.2756)" d="M402.7181 177.4488H453.74174V188.78739H402.7181Z" fill="#0b1220" fill-rule="evenodd"/>
<text fill="#9fb3cc" xml:space="preserve" transform="matrix(1 0 -0 1 0 595.2756)" font-size="7" font-family="Nimbus Sans"><tspan y="-181.7008" x="418.5034 422.3954 426.28739 430.17939 432.1254">120 m</tspan></text>
<path transform="matrix(1,0,0,-1,0,595.2756)" stroke-width="1.2" stroke-linecap="butt" stroke-miterlimit="10" stroke-linejoin="miter" fill="none" stroke="#5a6b85" d="M435.515 147.4016H581.2157"/>
<path transform="matrix(1,0,0,-1,0,595.2756)" d="M482.8535 141.1654H533.8771V152.50399H482.8535Z" fill="#0b1220" fill-rule="evenodd"/>
<text fill="#9fb3cc" xml:space="preserve" transform="matrix(1 0 -0 1 0 595.2756)" font-size="7" font-family="Nimbus Sans"><tspan y="-145.4173" x="500.5849 504.4769 508.3689 510.3149">65 m</tspan></text>
<path transform="matrix(1,0,0,-1,0,595.2756)" stroke-width="1.2" stroke-linecap="butt" stroke-miterlimit="10" stroke-linejoin="miter" fill="none" stroke="#5a6b85" d="M712.3465 319.748 581.2157 147.4016"/>
<path transform="matrix(1,0,0,-1,0,595.2756)" d="M621.2693 227.3386H672.2929V238.67717H621.2693Z" fill="#0b1220" fill-rule="evenodd"/>
<text fill="#9fb3cc" xml:space="preserve" transform="matrix(1 0 -0 1 0 595.2756)" font-size="7" font-family="Nimbus Sans"><tspan y="-231.5906" x="637.0546 640.94668 644.8387 648.7307 650.6767">100 m</tspan></text>
<path transform="matrix(1,0,0,-1,0,595.2756)" stroke-width="1.2" stroke-linecap="butt" stroke-miterlimit="10" stroke-linejoin="miter" fill="none" stroke="#5a6b85" d="M581.2157 410.4567V147.4016"/>
<path transform="matrix(1,0,0,-1,0,595.2756)" d="M555.7039 272.6929H606.72756V284.0315H555.7039Z" fill="#0b1220" fill-rule="evenodd"/>
<text fill="#9fb3cc" xml:space="preserve" transform="matrix(1 0 -0 1 0 595.2756)" font-size="7" font-family="Nimbus Sans"><tspan y="-276.9449" x="571.4892 575.3812 579.27328 583.1653 585.11129">150 m</tspan></text>
<path transform="matrix(1,0,0,-1,0,595.2756)" stroke-width="1.2" stroke-linecap="butt" stroke-miterlimit="10" stroke-linejoin="miter" fill="none" stroke="#5a6b85" d="M435.515 410.4567V492.0945"/>
<path transform="matrix(1,0,0,-1,0,595.2756)" d="M410.0031 445.0394H461.02674V456.378H410.0031Z" fill="#0b1220" fill-rule="evenodd"/>
<text fill="#9fb3cc" xml:space="preserve" transform="matrix(1 0 -0 1 0 595.2756)" font-size="7" font-family="Nimbus Sans"><tspan y="-449.2913" x="425.7885 429.6805 433.5725 437.4645 439.41053">180 m</tspan></text>
<path transform="matrix(1,0,0,-1,0,595.2756)" stroke-width="1.2" stroke-linecap="butt" stroke-miterlimit="10" stroke-linejoin="miter" fill="none" stroke="#5a6b85" d="M129.5433 473.9528 435.515 492.0945"/>
<path transform="matrix(1,0,0,-1,0,595.2756)" d="M257.0173 476.7874H308.04093V488.126H257.0173Z" fill="#0b1220" fill-rule="evenodd"/>
<text fill="#9fb3cc" xml:space="preserve" transform="matrix(1 0 -0 1 0 595.2756)" font-size="7" font-family="Nimbus Sans"><tspan y="-481.0394" x="272.8026 276.6946 280.5866 284.4786 286.42463">220 m</tspan></text>
<path transform="matrix(1,0,0,-1,0,595.2756)" stroke-width="1.2" stroke-linecap="butt" stroke-miterlimit="10" stroke-linejoin="miter" fill="none" stroke="#5a6b85" d="M581.2157 319.748V410.4567"/>
<path transform="matrix(1,0,0,-1,0,595.2756)" d="M555.7039 358.8661H606.72756V370.20469H555.7039Z" fill="#0b1220" fill-rule="evenodd"/>
<text fill="#9fb3cc" xml:space="preserve" transform="matrix(1 0 -0 1 0 595.2756)" font-size="7" font-family="Nimbus Sans"><tspan y="-363.1181" x="573.4352 577.3272 581.21926 583.1652">90 m</tspan></text>
<path transform="matrix(1,0,0,-1,0,595.2756)" stroke-width="2.2" stroke-linecap="butt" stroke-miterlimit="10" stroke-linejoin="miter" fill="none" stroke="#ff5050" d="M305.5748 410.4567C305.5748 427.2079 291.9953 440.7874 275.2441 440.7874 258.4929 440.7874 244.9134 427.2079 244.9134 410.4567 244.9134 393.7055 258.4929 380.126 275.2441 380.126 291.9953 380.126 305.5748 393.7055 305.5748 410.4567"/>
<path transform="matrix(1,0,0,-1,0,595.2756)" d="M302.1732 410.4567C302.1732 425.3292 290.1166 437.3858 275.2441 437.3858 260.3715 437.3858 248.315 425.3292 248.315 410.4567 248.315 395.5841 260.3715 383.5276 275.2441 383.5276 290.1166 383.5276 302.1732 395.5841 302.1732 410.4567" fill="#f4a73c" fill-rule="evenodd"/>
<path transform="matrix(1,0,0,-1,0,595.2756)" stroke-width=".8" stroke-linecap="butt" stroke-miterlimit="10" stroke-linejoin="miter" fill="none" stroke="#ffffff" d="M302.1732 410.4567C302.1732 425.3292 290.1166 437.3858 275.2441 437.3858 260.3715 437.3858 248.315 425.3292 248.315 410.4567 248.315 395.5841 260.3715 383.5276 275.2441 383.5276 290.1166 383.5276 302.1732 395.5841 302.1732 410.4567"/>
<text fill="#0b1220" xml:space="preserve" transform="matrix(1 0 -0 1 0 595.2756)" font-size="6.5" font-family="Nimbus Sans" font-weight="bold"><tspan y="-411.874" x="264.4086 269.1016 273.0731 276.6871 278.4941 282.10813">Nucleo</tspan></text>
<text fill="#0b1220" xml:space="preserve" transform="matrix(1 0 -0 1 0 595.2756)" font-size="6.5" font-family="Nimbus Sans" font-weight="bold"><tspan y="-392.8819" x="258.4481 262.7836 266.7551 270.3691 272.8976 276.8691 280.48313 282.6476 284.45463 288.06864">Energetico</tspan></text>
<path transform="matrix(1,0,0,-1,0,595.2756)" d="M156.4724 473.9528C156.4724 488.8253 144.4159 500.8819 129.5433 500.8819 114.6708 500.8819 102.6142 488.8253 102.6142 473.9528 102.6142 459.0802 114.6708 447.0236 129.5433 447.0236 144.4159 447.0236 156.4724 459.0802 156.4724 473.9528" fill="#f4a73c" fill-rule="evenodd"/>
<path transform="matrix(1,0,0,-1,0,595.2756)" stroke-width=".8" stroke-linecap="butt" stroke-miterlimit="10" stroke-linejoin="miter" fill="none" stroke="#ffffff" d="M156.4724 473.9528C156.4724 488.8253 144.4159 500.8819 129.5433 500.8819 114.6708 500.8819 102.6142 488.8253 102.6142 473.9528 102.6142 459.0802 114.6708 447.0236 129.5433 447.0236 144.4159 447.0236 156.4724 459.0802 156.4724 473.9528"/>
<text fill="#0b1220" xml:space="preserve" transform="matrix(1 0 -0 1 0 595.2756)" font-size="6.5" font-family="Nimbus Sans" font-weight="bold"><tspan y="-475.3701" x="109.4973 114.1903 117.8043 123.5828 127.5543 131.5258 133.33281 137.6683 141.6398 143.44681 147.0608">Campo Solar</tspan></text>
<text fill="#0b1220" xml:space="preserve" transform="matrix(1 0 -0 1 0 595.2756)" font-size="6.5" font-family="Nimbus Sans" font-weight="bold"><tspan y="-456.378" x="121.0576 125.7506 129.7221 132.25061 134.41512">Norte</tspan></text>
<path transform="matrix(1,0,0,-1,0,595.2756)" d="M156.4724 346.9606C156.4724 361.8332 144.4159 373.8898 129.5433 373.8898 114.6708 373.8898 102.6142 361.8332 102.6142 346.9606 102.6142 332.0881 114.6708 320.0315 129.5433 320.0315 144.4159 320.0315 156.4724 332.0881 156.4724 346.9606" fill="#f4a73c" fill-rule="evenodd"/>
<path transform="matrix(1,0,0,-1,0,595.2756)" stroke-width=".8" stroke-linecap="butt" stroke-miterlimit="10" stroke-linejoin="miter" fill="none" stroke="#ffffff" d="M156.4724 346.9606C156.4724 361.8332 144.4159 373.8898 129.5433 373.8898 114.6708 373.8898 102.6142 361.8332 102.6142 346.9606 102.6142 332.0881 114.6708 320.0315 129.5433 320.0315 144.4159 320.0315 156.4724 332.0881 156.4724 346.9606"/>
<text fill="#0b1220" xml:space="preserve" transform="matrix(1 0 -0 1 0 595.2756)" font-size="6.5" font-family="Nimbus Sans" font-weight="bold"><tspan y="-348.378" x="109.4973 114.1903 117.8043 123.5828 127.5543 131.5258 133.33281 137.6683 141.6398 143.44681 147.0608">Campo Solar</tspan></text>
<text fill="#0b1220" xml:space="preserve" transform="matrix(1 0 -0 1 0 595.2756)" font-size="6.5" font-family="Nimbus Sans" font-weight="bold"><tspan y="-329.3858" x="124.4863 128.8218 132.79329">Sul</tspan></text>
<path transform="matrix(1,0,0,-1,0,595.2756)" d="M302.1732 319.748C302.1732 334.6206 290.1166 346.6772 275.2441 346.6772 260.3715 346.6772 248.315 334.6206 248.315 319.748 248.315 304.8755 260.3715 292.8189 275.2441 292.8189 290.1166 292.8189 302.1732 304.8755 302.1732 319.748" fill="#f4a73c" fill-rule="evenodd"/>
<path transform="matrix(1,0,0,-1,0,595.2756)" stroke-width=".8" stroke-linecap="butt" stroke-miterlimit="10" stroke-linejoin="miter" fill="none" stroke="#ffffff" d="M302.1732 319.748C302.1732 334.6206 290.1166 346.6772 275.2441 346.6772 260.3715 346.6772 248.315 334.6206 248.315 319.748 248.315 304.8755 260.3715 292.8189 275.2441 292.8189 290.1166 292.8189 302.1732 304.8755 302.1732 319.748"/>
<text fill="#0b1220" xml:space="preserve" transform="matrix(1 0 -0 1 0 595.2756)" font-size="6.5" font-family="Nimbus Sans" font-weight="bold"><tspan y="-321.1654" x="258.0841 262.41963 266.03364 268.19813 271.81214 275.42616 279.04017 283.01167 284.81867 288.79017">Estacao de</tspan></text>
<text fill="#0b1220" xml:space="preserve" transform="matrix(1 0 -0 1 0 595.2756)" font-size="6.5" font-family="Nimbus Sans" font-weight="bold"><tspan y="-302.1732" x="249.9623 254.65529 257.18379 262.96229 266.5763 269.8263 273.4403 277.4118 281.02583 286.80433 290.41835 294.38984 296.55433">Armazenamento</tspan></text>
<path transform="matrix(1,0,0,-1,0,595.2756)" d="M462.4441 410.4567C462.4441 425.3292 450.3875 437.3858 435.515 437.3858 420.6424 437.3858 408.5858 425.3292 408.5858 410.4567 408.5858 395.5841 420.6424 383.5276 435.515 383.5276 450.3875 383.5276 462.4441 395.5841 462.4441 410.4567" fill="#c97cf4" fill-rule="evenodd"/>
<path transform="matrix(1,0,0,-1,0,595.2756)" stroke-width=".8" stroke-linecap="butt" stroke-miterlimit="10" stroke-linejoin="miter" fill="none" stroke="#ffffff" d="M462.4441 410.4567C462.4441 425.3292 450.3875 437.3858 435.515 437.3858 420.6424 437.3858 408.5858 425.3292 408.5858 410.4567 408.5858 395.5841 420.6424 383.5276 435.515 383.5276 450.3875 383.5276 462.4441 395.5841 462.4441 410.4567"/>
<text fill="#0b1220" xml:space="preserve" transform="matrix(1 0 -0 1 0 595.2756)" font-size="6.5" font-family="Nimbus Sans" font-weight="bold"><tspan y="-411.874" x="420.3472 425.0402 428.6542 432.6257 434.7902 437.3187 441.2902 443.0972 447.0687">Centro de</tspan></text>
<text fill="#0b1220" xml:space="preserve" transform="matrix(1 0 -0 1 0 595.2756)" font-size="6.5" font-family="Nimbus Sans" font-weight="bold"><tspan y="-392.8819" x="420.5292 425.2222 429.1937 434.9722 438.5862 442.5577 446.5292">Comando</tspan></text>
<path transform="matrix(1,0,0,-1,0,595.2756)" d="M462.4441 492.0945C462.4441 506.967 450.3875 519.0236 435.515 519.0236 420.6424 519.0236 408.5858 506.967 408.5858 492.0945 408.5858 477.2219 420.6424 465.1654 435.515 465.1654 450.3875 465.1654 462.4441 477.2219 462.4441 492.0945" fill="#c97cf4" fill-rule="evenodd"/>
<path transform="matrix(1,0,0,-1,0,595.2756)" stroke-width=".8" stroke-linecap="butt" stroke-miterlimit="10" stroke-linejoin="miter" fill="none" stroke="#ffffff" d="M462.4441 492.0945C462.4441 506.967 450.3875 519.0236 435.515 519.0236 420.6424 519.0236 408.5858 506.967 408.5858 492.0945 408.5858 477.2219 420.6424 465.1654 435.515 465.1654 450.3875 465.1654 462.4441 477.2219 462.4441 492.0945"/>
<text fill="#0b1220" xml:space="preserve" transform="matrix(1 0 -0 1 0 595.2756)" font-size="6.5" font-family="Nimbus Sans" font-weight="bold"><tspan y="-493.5118" x="419.6225 424.3155 427.9295 431.901 435.8725 439.4865 442.015 443.82203 447.79353">Hangar de</tspan></text>
<text fill="#0b1220" xml:space="preserve" transform="matrix(1 0 -0 1 0 595.2756)" font-size="6.5" font-family="Nimbus Sans" font-weight="bold"><tspan y="-474.5197" x="422.1477 426.48323 430.09724 431.90425 435.51826 439.48976 441.29676 445.26826">Veiculos</tspan></text>
<path transform="matrix(1,0,0,-1,0,595.2756)" d="M462.4441 319.748C462.4441 334.6206 450.3875 346.6772 435.515 346.6772 420.6424 346.6772 408.5858 334.6206 408.5858 319.748 408.5858 304.8755 420.6424 292.8189 435.515 292.8189 450.3875 292.8189 462.4441 304.8755 462.4441 319.748" fill="#5fd97a" fill-rule="evenodd"/>
<path transform="matrix(1,0,0,-1,0,595.2756)" stroke-width=".8" stroke-linecap="butt" stroke-miterlimit="10" stroke-linejoin="miter" fill="none" stroke="#ffffff" d="M462.4441 319.748C462.4441 334.6206 450.3875 346.6772 435.515 346.6772 420.6424 346.6772 408.5858 334.6206 408.5858 319.748 408.5858 304.8755 420.6424 292.8189 435.515 292.8189 450.3875 292.8189 462.4441 304.8755 462.4441 319.748"/>
<text fill="#0b1220" xml:space="preserve" transform="matrix(1 0 -0 1 0 595.2756)" font-size="6.5" font-family="Nimbus Sans" font-weight="bold"><tspan y="-321.1654" x="424.5007 429.1937 432.8077 436.7792 438.5862 440.7507 444.36473">Habitat</tspan></text>
<text fill="#0b1220" xml:space="preserve" transform="matrix(1 0 -0 1 0 595.2756)" font-size="6.5" font-family="Nimbus Sans" font-weight="bold"><tspan y="-302.1732" x="433.1685">A</tspan></text>
<path transform="matrix(1,0,0,-1,0,595.2756)" d="M608.1449 319.748C608.1449 334.6206 596.0883 346.6772 581.2157 346.6772 566.3432 346.6772 554.2866 334.6206 554.2866 319.748 554.2866 304.8755 566.3432 292.8189 581.2157 292.8189 596.0883 292.8189 608.1449 304.8755 608.1449 319.748" fill="#5fd97a" fill-rule="evenodd"/>
<path transform="matrix(1,0,0,-1,0,595.2756)" stroke-width=".8" stroke-linecap="butt" stroke-miterlimit="10" stroke-linejoin="miter" fill="none" stroke="#ffffff" d="M608.1449 319.748C608.1449 334.6206 596.0883 346.6772 581.2157 346.6772 566.3432 346.6772 554.2866 334.6206 554.2866 319.748 554.2866 304.8755 566.3432 292.8189 581.2157 292.8189 596.0883 292.8189 608.1449 304.8755 608.1449 319.748"/>
<text fill="#0b1220" xml:space="preserve" transform="matrix(1 0 -0 1 0 595.2756)" font-size="6.5" font-family="Nimbus Sans" font-weight="bold"><tspan y="-321.1654" x="570.2015 574.8945 578.5085 582.48 584.287 586.4515 590.0655">Habitat</tspan></text>
<text fill="#0b1220" xml:space="preserve" transform="matrix(1 0 -0 1 0 595.2756)" font-size="6.5" font-family="Nimbus Sans" font-weight="bold"><tspan y="-302.1732" x="578.8692">B</tspan></text>
<path transform="matrix(1,0,0,-1,0,595.2756)" d="M739.2756 319.748C739.2756 334.6206 727.219 346.6772 712.3465 346.6772 697.4739 346.6772 685.4173 334.6206 685.4173 319.748 685.4173 304.8755 697.4739 292.8189 712.3465 292.8189 727.219 292.8189 739.2756 304.8755 739.2756 319.748" fill="#5fd97a" fill-rule="evenodd"/>
<path transform="matrix(1,0,0,-1,0,595.2756)" stroke-width=".8" stroke-linecap="butt" stroke-miterlimit="10" stroke-linejoin="miter" fill="none" stroke="#ffffff" d="M739.2756 319.748C739.2756 334.6206 727.219 346.6772 712.3465 346.6772 697.4739 346.6772 685.4173 334.6206 685.4173 319.748 685.4173 304.8755 697.4739 292.8189 712.3465 292.8189 727.219 292.8189 739.2756 304.8755 739.2756 319.748"/>
<text fill="#0b1220" xml:space="preserve" transform="matrix(1 0 -0 1 0 595.2756)" font-size="6.5" font-family="Nimbus Sans" font-weight="bold"><tspan y="-321.1654" x="701.3322 706.0252 709.6392 713.6107 715.4177 717.5822 721.1962">Habitat</tspan></text>
<text fill="#0b1220" xml:space="preserve" transform="matrix(1 0 -0 1 0 595.2756)" font-size="6.5" font-family="Nimbus Sans" font-weight="bold"><tspan y="-302.1732" x="710">C</tspan></text>
<path transform="matrix(1,0,0,-1,0,595.2756)" d="M608.1449 410.4567C608.1449 425.3292 596.0883 437.3858 581.2157 437.3858 566.3432 437.3858 554.2866 425.3292 554.2866 410.4567 554.2866 395.5841 566.3432 383.5276 581.2157 383.5276 596.0883 383.5276 608.1449 395.5841 608.1449 410.4567" fill="#e0e0e0" fill-rule="evenodd"/>
<path transform="matrix(1,0,0,-1,0,595.2756)" stroke-width=".8" stroke-linecap="butt" stroke-miterlimit="10" stroke-linejoin="miter" fill="none" stroke="#ffffff" d="M608.1449 410.4567C608.1449 425.3292 596.0883 437.3858 581.2157 437.3858 566.3432 437.3858 554.2866 425.3292 554.2866 410.4567 554.2866 395.5841 566.3432 383.5276 581.2157 383.5276 596.0883 383.5276 608.1449 395.5841 608.1449 410.4567"/>
<text fill="#0b1220" xml:space="preserve" transform="matrix(1 0 -0 1 0 595.2756)" font-size="6.5" font-family="Nimbus Sans" font-weight="bold"><tspan y="-411.874" x="558.4625 562.434 566.04806 570.01956 573.991 576.51956 580.13357 582.29806 586.26956 588.79806 590.60507 594.57656 596.38357 600.35507">Laboratorio de</tspan></text>
<text fill="#0b1220" xml:space="preserve" transform="matrix(1 0 -0 1 0 595.2756)" font-size="6.5" font-family="Nimbus Sans" font-weight="bold"><tspan y="-392.8819" x="566.945 571.2805 574.89456 578.50857 582.48007 586.45156 588.25857 591.87258">Pesquisa</tspan></text>
<path transform="matrix(1,0,0,-1,0,595.2756)" d="M302.1732 219.9685C302.1732 234.8411 290.1166 246.8976 275.2441 246.8976 260.3715 246.8976 248.315 234.8411 248.315 219.9685 248.315 205.096 260.3715 193.0394 275.2441 193.0394 290.1166 193.0394 302.1732 205.096 302.1732 219.9685" fill="#3ca7f4" fill-rule="evenodd"/>
<path transform="matrix(1,0,0,-1,0,595.2756)" stroke-width=".8" stroke-linecap="butt" stroke-miterlimit="10" stroke-linejoin="miter" fill="none" stroke="#ffffff" d="M302.1732 219.9685C302.1732 234.8411 290.1166 246.8976 275.2441 246.8976 260.3715 246.8976 248.315 234.8411 248.315 219.9685 248.315 205.096 260.3715 193.0394 275.2441 193.0394 290.1166 193.0394 302.1732 205.096 302.1732 219.9685"/>
<text fill="#0b1220" xml:space="preserve" transform="matrix(1 0 -0 1 0 595.2756)" font-size="6.5" font-family="Nimbus Sans" font-weight="bold"><tspan y="-221.3858" x="260.2551 264.5906 268.5621 272.5336 276.5051 279.0336 281.1981 284.8121 286.6191">Suporte a</tspan></text>
<text fill="#0b1220" xml:space="preserve" transform="matrix(1 0 -0 1 0 595.2756)" font-size="6.5" font-family="Nimbus Sans" font-weight="bold"><tspan y="-202.3937" x="256.2803 260.6158 262.42283 266.39433 270.00834 271.81535 276.50834 280.12236 284.09385 286.25834 288.78684 292.40086">Vida Central</tspan></text>
<path transform="matrix(1,0,0,-1,0,595.2756)" d="M462.4441 147.4016C462.4441 162.2741 450.3875 174.3307 435.515 174.3307 420.6424 174.3307 408.5858 162.2741 408.5858 147.4016 408.5858 132.529 420.6424 120.4724 435.515 120.4724 450.3875 120.4724 462.4441 132.529 462.4441 147.4016" fill="#3ca7f4" fill-rule="evenodd"/>
<path transform="matrix(1,0,0,-1,0,595.2756)" stroke-width=".8" stroke-linecap="butt" stroke-miterlimit="10" stroke-linejoin="miter" fill="none" stroke="#ffffff" d="M462.4441 147.4016C462.4441 162.2741 450.3875 174.3307 435.515 174.3307 420.6424 174.3307 408.5858 162.2741 408.5858 147.4016 408.5858 132.529 420.6424 120.4724 435.515 120.4724 450.3875 120.4724 462.4441 132.529 462.4441 147.4016"/>
<text fill="#0b1220" xml:space="preserve" transform="matrix(1 0 -0 1 0 595.2756)" font-size="6.5" font-family="Nimbus Sans" font-weight="bold"><tspan y="-148.8189" x="412.7552 417.44819 421.0622 424.6762 426.48323 430.09724 431.90425 435.51826 439.48976 443.10377 448.88227 450.68928 454.66078">Reciclagem de</tspan></text>
<text fill="#0b1220" xml:space="preserve" transform="matrix(1 0 -0 1 0 595.2756)" font-size="6.5" font-family="Nimbus Sans" font-weight="bold"><tspan y="-129.8268" x="427.39 432.083 436.0545 440.026">Agua</tspan></text>
<path transform="matrix(1,0,0,-1,0,595.2756)" d="M608.1449 147.4016C608.1449 162.2741 596.0883 174.3307 581.2157 174.3307 566.3432 174.3307 554.2866 162.2741 554.2866 147.4016 554.2866 132.529 566.3432 120.4724 581.2157 120.4724 596.0883 120.4724 608.1449 132.529 608.1449 147.4016" fill="#5fd97a" fill-rule="evenodd"/>
<path transform="matrix(1,0,0,-1,0,595.2756)" stroke-width=".8" stroke-linecap="butt" stroke-miterlimit="10" stroke-linejoin="miter" fill="none" stroke="#ffffff" d="M608.1449 147.4016C608.1449 162.2741 596.0883 174.3307 581.2157 174.3307 566.3432 174.3307 554.2866 162.2741 554.2866 147.4016 554.2866 132.529 566.3432 120.4724 581.2157 120.4724 596.0883 120.4724 608.1449 132.529 608.1449 147.4016"/>
<text fill="#0b1220" xml:space="preserve" transform="matrix(1 0 -0 1 0 595.2756)" font-size="6.5" font-family="Nimbus Sans" font-weight="bold"><tspan y="-148.8189" x="571.2837 575.6192 579.2332 581.3977 585.3692 587.5337">Estufa</tspan></text>
<text fill="#0b1220" xml:space="preserve" transform="matrix(1 0 -0 1 0 595.2756)" font-size="6.5" font-family="Nimbus Sans" font-weight="bold"><tspan y="-129.8268" x="562.2552 566.9482 568.7552 572.7267 575.2552 579.2267 583.1982 587.1697 591.1412 592.9482 596.5622">Hidroponica</tspan></text>
<path transform="matrix(1,0,0,-1,0,595.2756)" d="M65.19685 28.91339C65.19685 31.26168 63.29318 33.16535 60.94488 33.16535 58.59658 33.16535 56.69291 31.26168 56.69291 28.91339 56.69291 26.56509 58.59658 24.66142 60.94488 24.66142 63.29318 24.66142 65.19685 26.56509 65.19685 28.91339" fill="#f4a73c" fill-rule="evenodd"/>
<text fill="#ffffff" xml:space="preserve" transform="matrix(1 0 -0 1 0 595.2756)" font-size="8" font-family="Nimbus Sans"><tspan y="-25.51181" x="69.44882 75.67282 80.12082 82.78482 87.23282 91.23282 95.68082 100.128818 102.35281 104.57681 106.80081 112.13681 114.80081 121.46481 125.91281 129.91281 134.36081 138.8088 143.2568 149.9208 154.3688 158.8168 161.0408 165.4888 167.7128 172.1608 176.6088 178.8328 184.1688 188.61679 193.06479 195.72879 200.17679 201.95279">Geracao / Armazenamento de Energia</tspan></text>
<path transform="matrix(1,0,0,-1,0,595.2756)" d="M223.937 28.91339C223.937 31.26168 222.0333 33.16535 219.685 33.16535 217.3367 33.16535 215.4331 31.26168 215.4331 28.91339 215.4331 26.56509 217.3367 24.66142 219.685 24.66142 222.0333 24.66142 223.937 26.56509 223.937 28.91339" fill="#3ca7f4" fill-rule="evenodd"/>
<text fill="#ffffff" xml:space="preserve" transform="matrix(1 0 -0 1 0 595.2756)" font-size="8" font-family="Nimbus Sans"><tspan y="-25.51181" x="228.189 233.525 237.97299 242.42099 246.86899 249.53299 251.75699 256.205 258.429 262.87699 265.10099 270.43699 272.21299 276.66099">Suporte a Vida</tspan></text>
<path transform="matrix(1,0,0,-1,0,595.2756)" d="M382.6772 28.91339C382.6772 31.26168 380.7735 33.16535 378.4252 33.16535 376.0769 33.16535 374.1732 31.26168 374.1732 28.91339 374.1732 26.56509 376.0769 24.66142 378.4252 24.66142 380.7735 24.66142 382.6772 26.56509 382.6772 28.91339" fill="#5fd97a" fill-rule="evenodd"/>
<text fill="#ffffff" xml:space="preserve" transform="matrix(1 0 -0 1 0 595.2756)" font-size="8" font-family="Nimbus Sans"><tspan y="-25.51181" x="386.9291 392.7051 397.1531 401.6011 403.3771 405.6011 410.0491 412.2731 414.4971 416.7211 418.9451 424.2811 426.9451 431.3931 435.8411 440.2891 444.2891 448.7371 453.1851 455.4091 459.8571 464.30509 466.52909 471.86509 473.64109 475.41709 482.0811 486.52909 490.97709 493.20109">Habitat / Producao de Alimento</tspan></text>
<path transform="matrix(1,0,0,-1,0,595.2756)" d="M541.4173 28.91339C541.4173 31.26168 539.5137 33.16535 537.1654 33.16535 534.8171 33.16535 532.9134 31.26168 532.9134 28.91339 532.9134 26.56509 534.8171 24.66142 537.1654 24.66142 539.5137 24.66142 541.4173 26.56509 541.4173 28.91339" fill="#c97cf4" fill-rule="evenodd"/>
<text fill="#ffffff" xml:space="preserve" transform="matrix(1 0 -0 1 0 595.2756)" font-size="8" font-family="Nimbus Sans"><tspan y="-25.51181" x="545.6693 551.8933 556.3413 560.7893 563.4533 567.9013 571.9013 573.6773 578.1253 582.5733 587.0213">Operacional</tspan></text>
<path transform="matrix(1,0,0,-1,0,595.2756)" d="M700.1575 28.91339C700.1575 31.26168 698.2538 33.16535 695.9055 33.16535 693.5572 33.16535 691.6535 31.26168 691.6535 28.91339 691.6535 26.56509 693.5572 24.66142 695.9055 24.66142 698.2538 24.66142 700.1575 26.56509 700.1575 28.91339" fill="#e0e0e0" fill-rule="evenodd"/>
<text fill="#ffffff" xml:space="preserve" transform="matrix(1 0 -0 1 0 595.2756)" font-size="8" font-family="Nimbus Sans"><tspan y="-25.51181" x="704.4094 709.7454 714.1934 718.1934 722.6414 727.0894 728.8654 732.8654">Pesquisa</tspan></text>
<path transform="matrix(1,0,0,-1,0,595.2756)" stroke-width=".8" stroke-linecap="butt" stroke-miterlimit="10" stroke-linejoin="miter" fill="none" stroke="#ffffff" d="M858.8976 28.91339C858.8976 31.26168 856.994 33.16535 854.6457 33.16535 852.2974 33.16535 850.3937 31.26168 850.3937 28.91339 850.3937 26.56509 852.2974 24.66142 854.6457 24.66142 856.994 24.66142 858.8976 26.56509 858.8976 28.91339"/>
<text fill="#ffffff" xml:space="preserve" transform="matrix(1 0 -0 1 0 595.2756)" font-size="8" font-family="Nimbus Sans"><tspan y="-25.51181" x="863.1496 869.8136 874.2616 878.7096 883.1576 884.9336 889.3816 891.6056 895.6056 898.2696 900.0456 902.2696 904.0456 908.0456 912.4936 914.7176 917.3816 921.8296 926.2776 930.7256 932.9496 937.3976 939.6216 944.0696 948.5176 950.7416 955.1896 957.8536 960.0776 961.8536 965.8536 970.3016 972.0776 976.5256 980.5256 984.9736 989.4216">Modulo critico (ponto de articulacao)</tspan></text>
</svg>
